<svg width="25" height="25" viewBox="0 0 25 25" fill="none" xmlns="http://www.w3.org/2000/svg">
<g clip-path="url(#clip0)">
<path d="M19.3239 5.81544L19.3067 5.80536L19.267 5.79326C19.283 5.80673 19.303 5.81454 19.3239 5.81544Z" fill="#0D0C22"/>
<path d="M19.5738 7.60147L19.5547 7.60685L19.5738 7.60147Z" fill="#0D0C22"/>
<path d="M19.3312 5.81269C19.3288 5.81238 19.3264 5.81181 19.324 5.81099C19.3239 5.81257 19.3239 5.81418 19.324 5.81576C19.3267 5.81541 19.3291 5.81435 19.3312 5.81269Z" fill="#0D0C22"/>
<path d="M19.3239 5.81566H19.3265V5.81406L19.3239 5.81566Z" fill="#0D0C22"/>
<path d="M19.5585 7.59823L19.5874 7.58175L19.5982 7.5757L19.6079 7.56528C19.5896 7.57317 19.5728 7.58435 19.5585 7.59823Z" fill="#0D0C22"/>
<path d="M19.3739 5.85447L19.3456 5.82756L19.3265 5.81714C19.3368 5.83532 19.3538 5.84873 19.3739 5.85447Z" fill="#0D0C22"/>
<path d="M12.2658 23.1857C12.2432 23.1955 12.2235 23.2107 12.2083 23.2301L12.2261 23.2187C12.2382 23.2076 12.2554 23.1945 12.2658 23.1857Z" fill="#0D0C22"/>
<path d="M16.3934 22.3735C16.3934 22.3481 16.381 22.3528 16.384 22.4435C16.384 22.4363 16.387 22.4288 16.3884 22.4218C16.39 22.4056 16.3914 22.3898 16.3934 22.3735Z" fill="#0D0C22"/>
<path d="M15.9653 23.1857C15.9427 23.1955 15.9229 23.2107 15.9078 23.2301L15.9256 23.2187C15.9377 23.2076 15.9549 23.1945 15.9653 23.1857Z" fill="#0D0C22"/>
<path d="M9.35895 23.3788C9.34181 23.364 9.32084 23.3542 9.29842 23.3505C9.31657 23.3593 9.33473 23.3681 9.34683 23.3747L9.35895 23.3788Z" fill="#0D0C22"/>
<path d="M8.70487 22.7523C8.70219 22.726 8.69406 22.7004 8.68098 22.6771C8.69025 22.7011 8.69799 22.726 8.70419 22.751L8.70487 22.7523Z" fill="#0D0C22"/>
<path d="M13.0986 11.5488C12.2006 11.9332 11.1815 12.3691 9.86075 12.3691C9.30825 12.368 8.7584 12.2922 8.22621 12.1437L9.13968 21.5223C9.17201 21.9142 9.35059 22.2797 9.63993 22.5461C9.92928 22.8125 10.3082 22.9603 10.7016 22.9603C10.7016 22.9603 11.9968 23.0276 12.4289 23.0276C12.8941 23.0276 14.2888 22.9603 14.2888 22.9603C14.6821 22.9603 15.061 22.8123 15.3503 22.5459C15.6395 22.2795 15.8181 21.9142 15.8504 21.5223L16.8288 11.1586C16.3915 11.0093 15.9503 10.9101 15.4529 10.9101C14.5925 10.9098 13.8994 11.2061 13.0986 11.5488Z" fill="white"/>
<path d="M5.39853 7.54753L5.414 7.562L5.42409 7.56806C5.41632 7.56033 5.40775 7.55345 5.39853 7.54753Z" fill="#0D0C22"/>
<path d="M21.0529 6.68196L20.9154 5.98812C20.7919 5.36558 20.5118 4.77735 19.8728 4.55235C19.6679 4.48036 19.4355 4.44943 19.2785 4.30043C19.1214 4.15145 19.075 3.92006 19.0387 3.70547C18.9714 3.31163 18.9082 2.91746 18.8392 2.5243C18.7797 2.18628 18.7326 1.80657 18.5776 1.49648C18.3758 1.08011 17.957 0.836609 17.5407 0.675508C17.3273 0.595864 17.1096 0.528489 16.8885 0.473714C15.8483 0.199271 14.7545 0.0983732 13.6843 0.0408614C12.3998 -0.030019 11.1119 -0.00866367 9.83038 0.104763C8.87657 0.191535 7.87196 0.29647 6.96556 0.626405C6.63429 0.747146 6.29291 0.892101 6.04101 1.14805C5.73192 1.46251 5.63102 1.94884 5.85669 2.34099C6.01713 2.61947 6.28888 2.81622 6.57712 2.94638C6.95255 3.11409 7.34463 3.24171 7.74686 3.32711C8.86682 3.57465 10.0268 3.67183 11.171 3.71321C12.4392 3.76439 13.7093 3.72291 14.9715 3.58909C15.2836 3.55479 15.5951 3.51364 15.9061 3.46568C16.2724 3.4095 16.5075 2.93057 16.3995 2.59693C16.2704 2.19806 15.9233 2.04335 15.5308 2.10356C15.4729 2.11263 15.4154 2.12103 15.3576 2.12944L15.3159 2.1355C15.1829 2.15233 15.0499 2.168 14.917 2.18258C14.6423 2.21218 14.367 2.2364 14.091 2.25524C13.4728 2.29828 12.853 2.31812 12.2334 2.31914C11.6247 2.31914 11.0156 2.30197 10.4082 2.26196C10.1311 2.2438 9.8546 2.2207 9.57882 2.19267C9.45337 2.17955 9.32825 2.16577 9.20315 2.15029L9.08408 2.13516L9.0582 2.13147L8.93476 2.11364C8.68251 2.07563 8.43026 2.03192 8.18071 1.9791C8.15554 1.97351 8.133 1.95952 8.11685 1.93939C8.10071 1.91927 8.09191 1.89425 8.09191 1.86846C8.09191 1.84266 8.10071 1.81764 8.11685 1.79752C8.133 1.7774 8.15554 1.76339 8.18071 1.7578H8.18542C8.40169 1.71173 8.61961 1.67238 8.83822 1.63807C8.91111 1.62664 8.98419 1.61543 9.05751 1.60444H9.05952C9.19641 1.59536 9.33398 1.57081 9.47018 1.55466C10.6553 1.43139 11.8474 1.38937 13.0383 1.42888C13.6164 1.4457 14.1942 1.47966 14.7697 1.53818C14.8934 1.55097 15.0165 1.56442 15.1396 1.57955C15.1867 1.58527 15.2341 1.592 15.2816 1.59772L15.3771 1.6115C15.6556 1.65298 15.9326 1.70332 16.2081 1.76252C16.6164 1.85131 17.1408 1.88023 17.3224 2.32754C17.3802 2.46947 17.4065 2.62721 17.4384 2.77619L17.4791 2.96622C17.4802 2.96962 17.481 2.97312 17.4815 2.97664C17.5777 3.42508 17.674 3.87351 17.7704 4.32195C17.7774 4.35508 17.7776 4.38931 17.7709 4.4225C17.7641 4.45571 17.7506 4.48714 17.7312 4.51489C17.7117 4.54263 17.6868 4.56607 17.6579 4.58374C17.629 4.60141 17.5968 4.61292 17.5632 4.61759H17.5605L17.5016 4.62566L17.4435 4.63339C17.2592 4.65739 17.0746 4.67981 16.8899 4.70066C16.526 4.74214 16.1615 4.77801 15.7965 4.80829C15.0711 4.86859 14.3443 4.90817 13.6161 4.92701C13.245 4.93686 12.874 4.94148 12.5032 4.94079C11.027 4.93964 9.55218 4.85383 8.08587 4.68384C7.92712 4.66501 7.76838 4.64482 7.60962 4.62432C7.73273 4.64013 7.52016 4.6122 7.47712 4.60616C7.37622 4.59203 7.27532 4.57735 7.17442 4.5621C6.83574 4.5113 6.49909 4.44875 6.16107 4.39392C5.75244 4.32666 5.36163 4.3603 4.992 4.5621C4.6886 4.72813 4.44304 4.98272 4.28807 5.29193C4.12865 5.62152 4.08123 5.98038 4.00993 6.33454C3.93863 6.68868 3.82764 7.06974 3.86968 7.43331C3.96016 8.21796 4.5087 8.85563 5.29772 8.99824C6.04 9.13276 6.7863 9.24173 7.53462 9.33456C10.4742 9.69459 13.444 9.73765 16.3928 9.46304C16.6329 9.44062 16.8727 9.41618 17.1122 9.38972C17.187 9.38151 17.2627 9.39011 17.3337 9.41493C17.4047 9.43976 17.4693 9.48016 17.5227 9.53317C17.5761 9.58618 17.617 9.65047 17.6423 9.72131C17.6677 9.79216 17.6768 9.86779 17.6691 9.94263L17.5945 10.6684C17.444 12.135 17.2936 13.6015 17.1431 15.0679C16.9862 16.6078 16.8282 18.1477 16.6692 19.6873C16.6244 20.121 16.5796 20.5545 16.5347 20.9879C16.4917 21.4148 16.4856 21.855 16.4046 22.2768C16.2767 22.94 15.8278 23.3473 15.1726 23.4963C14.5724 23.6329 13.9592 23.7047 13.3437 23.7101C12.6612 23.7138 11.9792 23.6835 11.2968 23.6873C10.5683 23.6914 9.67602 23.6241 9.11369 23.0819C8.61961 22.6057 8.55133 21.86 8.48408 21.2152C8.3944 20.3616 8.3055 19.5082 8.21736 18.6548L7.72297 13.9096L7.40313 10.8393C7.39774 10.7885 7.39236 10.7384 7.38732 10.6873C7.34897 10.321 7.08967 9.96249 6.68103 9.98098C6.33126 9.99644 5.93372 10.2938 5.97475 10.6873L6.21185 12.9635L6.70221 17.6721C6.84191 19.0095 6.98126 20.3471 7.12028 21.6851C7.14719 21.9414 7.17241 22.1984 7.20065 22.4547C7.35436 23.8552 8.42387 24.6099 9.74832 24.8223C10.5219 24.9468 11.3143 24.9724 12.0992 24.9851C13.1055 25.0014 14.1219 25.0401 15.1117 24.8577C16.5784 24.5885 17.6789 23.6093 17.836 22.0901C17.8808 21.6515 17.9257 21.2129 17.9705 20.774C18.1196 19.3229 18.2685 17.8716 18.4171 16.4203L18.9035 11.6781L19.1265 9.50475C19.1376 9.39697 19.1831 9.29564 19.2562 9.21575C19.3294 9.13587 19.4264 9.08165 19.5327 9.06112C19.9521 8.9794 20.353 8.83982 20.6514 8.52064C21.1262 8.01247 21.2207 7.3499 21.0529 6.68196ZM5.2762 7.1508C5.28259 7.14777 5.27082 7.20258 5.26577 7.22815C5.26476 7.18946 5.26678 7.15516 5.2762 7.1508ZM5.3169 7.4656C5.32026 7.46323 5.33035 7.4767 5.34077 7.49285C5.32497 7.47803 5.31488 7.46695 5.31656 7.4656H5.3169ZM5.35692 7.51839C5.37138 7.54294 5.37912 7.55842 5.35692 7.51839V7.51839ZM5.4373 7.58364H5.43932C5.43932 7.58601 5.44302 7.58835 5.44436 7.59072C5.44213 7.58812 5.43966 7.58575 5.43696 7.58364H5.4373ZM19.5132 7.4861C19.3626 7.62938 19.1355 7.69597 18.9112 7.72928C16.3955 8.1026 13.8431 8.29162 11.2998 8.20821C9.4796 8.14599 7.67858 7.94384 5.87655 7.68925C5.69997 7.66437 5.5086 7.63208 5.38719 7.50192C5.15848 7.25639 5.27082 6.762 5.33035 6.46536C5.38483 6.19361 5.48909 5.83139 5.8123 5.79271C6.3168 5.73352 6.90266 5.9464 7.40178 6.02209C8.00268 6.11378 8.60583 6.18722 9.21121 6.24238C11.7949 6.47781 14.4219 6.44115 16.9941 6.09676C17.463 6.03374 17.9301 5.96054 18.3956 5.87713C18.8103 5.8028 19.2701 5.66323 19.5206 6.09271C19.6925 6.38532 19.7154 6.7768 19.6888 7.10741C19.6806 7.25145 19.6177 7.38692 19.5129 7.4861H19.5132Z" fill="#0D0C22"/>
</g>
<defs>
<clipPath id="clip0">
<rect width="25" height="25" fill="white"/>
</clipPath>
</defs>
</svg>
