<svg width="25" height="25" viewBox="0 0 25 25" fill="none" xmlns="http://www.w3.org/2000/svg">
<path d="M23.9088 14.0095C24.2618 14.5089 24.5307 15.0509 24.7186 15.6447C24.9055 16.2365 25 16.849 25 17.4834C25 18.3918 24.8162 19.2452 24.4529 20.0446C24.0885 20.842 23.587 21.5448 22.9475 22.1553C22.3079 22.7595 21.5635 23.234 20.7081 23.5787C19.8526 23.9234 18.9525 24.0926 17.9952 24.0926C16.6321 24.0926 15.4091 23.7708 14.3241 23.1281C14.023 23.1696 13.7199 23.1997 13.4136 23.2226C13.1063 23.2433 12.8021 23.2516 12.4979 23.2516C10.9053 23.2516 9.4103 22.9661 8.01184 22.3972C6.61649 21.8252 5.39452 21.0486 4.34178 20.0592C3.29215 19.0739 2.4647 17.9122 1.86877 16.5822C1.26765 15.2523 0.967608 13.831 0.967608 12.3204C0.967608 12.0276 0.982143 11.7494 1.01329 11.4919C1.04132 11.2344 1.07973 10.9717 1.11919 10.7091C0.371678 9.67191 0 8.55792 0 7.36294C0 6.47424 0.183762 5.63433 0.548173 4.84426C0.911545 4.05522 1.40988 3.36897 2.04942 2.78653C2.68895 2.20306 3.4375 1.74417 4.28779 1.40779C5.14016 1.07142 6.04444 0.907379 7.00166 0.907379C7.69103 0.907379 8.33783 0.988359 8.95245 1.15343C9.56707 1.32059 10.1422 1.55314 10.6728 1.85734C10.9728 1.81477 11.2801 1.78466 11.5833 1.76078C11.8906 1.7421 12.1979 1.73068 12.4979 1.73068C14.0957 1.73068 15.5959 2.00892 16.9985 2.56228C18.398 3.11149 19.6231 3.8725 20.6759 4.83803C21.7286 5.80771 22.5581 6.93001 23.1603 8.20701C23.7604 9.48608 24.0604 10.8586 24.0604 12.3204C24.0615 12.8592 24.0116 13.423 23.9088 14.0095ZM17.9952 17.3339C18.4873 16.686 18.7303 15.925 18.7303 15.0509C18.7303 14.3625 18.5932 13.7842 18.3233 13.315C18.0419 12.8478 17.6453 12.4564 17.1335 12.1439C16.6632 11.8407 16.0517 11.5718 15.3032 11.331C14.5505 11.142 13.7521 10.9572 12.908 10.7683L11.983 10.5575C11.7348 10.5046 11.5376 10.4599 11.3891 10.4194C11.224 10.3789 11.0714 10.3343 10.9261 10.2813C10.789 10.2325 10.6437 10.1754 10.4983 10.1132C10.2159 9.9948 9.97924 9.83387 9.79132 9.64492C9.64597 9.48192 9.5733 9.26286 9.5733 8.99085C9.5733 8.59322 9.81001 8.23815 10.2803 7.92358C10.8129 7.62976 11.4639 7.48857 12.2373 7.49791C13.1312 7.49791 13.7593 7.62976 14.1134 7.89451C14.5411 8.20804 14.8765 8.59426 15.1163 9.05003C15.325 9.38433 15.5368 9.6335 15.7558 9.79754C15.9645 9.95742 16.2542 10.0436 16.6186 10.055C17.0287 10.055 17.3681 9.91901 17.6537 9.64492C17.9329 9.38952 18.0669 9.10194 18.0596 8.77802C18.0596 8.40323 17.9537 8.03466 17.7461 7.6796C17.5405 7.34633 17.1948 6.99127 16.7182 6.6144C16.4774 6.45244 16.2126 6.30397 15.9271 6.16797C15.6406 6.03093 15.3187 5.91049 14.9689 5.80875C14.6024 5.70908 14.2172 5.63225 13.8113 5.58034C13.4043 5.52947 12.9599 5.50559 12.4678 5.50559C11.2282 5.50559 10.1827 5.65717 9.3314 5.96033C8.41674 6.27594 7.72425 6.70991 7.25498 7.27262C6.78571 7.80833 6.55108 8.45202 6.55108 9.20368C6.55108 9.9948 6.77845 10.6385 7.22695 11.1347C7.67857 11.6715 8.29007 12.0774 9.06354 12.3526C9.79859 12.6464 10.7382 12.9038 11.8906 13.126C12.3214 13.2278 12.6983 13.3139 13.0316 13.3793C13.3596 13.4437 13.6576 13.5174 13.9182 13.5974C14.4093 13.7313 14.8079 13.9556 15.1121 14.2743C15.4371 14.5504 15.6001 14.9055 15.6001 15.3436C15.6001 15.9489 15.3032 16.4389 14.7166 16.8127C14.1622 17.1958 13.4126 17.3847 12.4689 17.3713C11.713 17.3713 11.1659 17.284 10.8191 17.1075C10.3883 16.9113 10.0706 16.6622 9.86192 16.3652C9.59718 16.0268 9.38538 15.6509 9.21512 15.245C9.06665 14.8598 8.86628 14.5691 8.60465 14.3729C8.36067 14.1746 8.07517 14.076 7.73983 14.076C7.31208 14.076 6.95909 14.1954 6.67982 14.43C6.40054 14.6968 6.26661 15.0093 6.27284 15.3602C6.27284 15.9717 6.49917 16.5833 6.94767 17.1958C7.39306 17.826 7.96512 18.3181 8.66175 18.6721C9.68231 19.1995 10.9645 19.4663 12.5052 19.4767C13.7625 19.4767 14.8827 19.2899 15.8576 18.9171C16.8148 18.4925 17.5291 17.9661 17.9952 17.3339Z" fill="white"/>
</svg>
