<svg width="25" height="26" viewBox="0 0 25 26" fill="none" xmlns="http://www.w3.org/2000/svg">
<g clip-path="url(#clip0)">
<path d="M0.0236053 25.1091L1.78735 18.6667C0.697485 16.7768 0.125085 14.633 0.127851 12.4513C0.130603 5.59662 5.70779 0.0197906 12.5604 0.0197906C14.1937 0.0200575 15.811 0.342113 17.3199 0.967559C18.8287 1.59301 20.1995 2.50959 21.3541 3.66495C22.5086 4.82031 23.4242 6.19181 24.0485 7.7011C24.6729 9.2104 24.9938 10.8279 24.9929 12.4612C24.9901 19.3161 19.4124 24.8935 12.5606 24.8935H12.5554C10.4797 24.8934 8.43711 24.3732 6.61425 23.3803L0.0236053 25.1091ZM6.91951 21.1295L7.29666 21.3535C8.8889 22.2966 10.7055 22.7941 12.556 22.7939H12.5603C18.2557 22.7939 22.8912 18.1582 22.8935 12.4605C22.8943 11.1033 22.6278 9.75921 22.1091 8.50503C21.5905 7.25084 20.8299 6.11109 19.8708 5.15085C18.9116 4.19061 17.7728 3.42869 16.5192 2.90859C15.2656 2.38849 13.9218 2.12039 12.5646 2.1196C6.86491 2.1196 2.22928 6.75475 2.22701 12.4522C2.22417 14.3976 2.77188 16.304 3.80684 17.9513L4.05254 18.3423L3.0084 22.1555L6.91951 21.1295ZM18.8238 15.4178C18.7461 15.2882 18.5391 15.2105 18.2285 15.0549C17.9179 14.8993 16.3906 14.148 16.1058 14.0441C15.8211 13.9402 15.614 13.8886 15.4069 14.1996C15.1997 14.5106 14.6045 15.2104 14.4232 15.4177C14.242 15.625 14.0609 15.6509 13.7503 15.4954C13.4397 15.3399 12.4387 15.0119 11.2522 13.9533C10.3287 13.1295 9.70527 12.1123 9.52375 11.8013C9.34223 11.4902 9.50443 11.3222 9.65993 11.1673C9.7997 11.0281 9.97064 10.8044 10.126 10.623C10.2813 10.4416 10.333 10.312 10.4365 10.1048C10.5401 9.89756 10.4883 9.71604 10.4106 9.56054C10.333 9.40504 9.71178 7.87592 9.45287 7.25391C9.20072 6.64823 8.9445 6.73029 8.75395 6.72066C8.57297 6.71163 8.36568 6.70972 8.15856 6.70972C8.00114 6.71386 7.84628 6.75054 7.70372 6.81745C7.56117 6.88435 7.434 6.98003 7.33021 7.09847C7.04547 7.40947 6.24296 8.16109 6.24296 9.69003C6.24296 11.219 7.35647 12.6964 7.51197 12.9038C7.66747 13.1111 9.70239 16.2488 12.8187 17.5944C13.397 17.8436 13.9881 18.062 14.5896 18.2487C15.3337 18.4852 16.0109 18.4521 16.5462 18.3718C17.143 18.2827 18.3841 17.6204 18.643 16.8945C18.9018 16.1687 18.9016 15.5471 18.8239 15.4176L18.8238 15.4178Z" fill="#FEFEFE"/>
</g>
<defs>
<clipPath id="clip0">
<rect width="25" height="25.1195" fill="white"/>
</clipPath>
</defs>
</svg>
